HIERARCHY
ROOT Hips
{
    OFFSET   0.000000   0.000000   0.000000
    CHANNELS 6 Xposition Yposition Zposition Zrotation Xrotation Yrotation
    JOINT Chest
    {
        OFFSET   0.000000   8.007230   0.000000
        CHANNELS 3 Zrotation Xrotation Yrotation
        JOINT Chest2
        {
            OFFSET   0.000000  22.077100   0.000000
            CHANNELS 3 Zrotation Xrotation Yrotation
            JOINT Neck
            {
                OFFSET   0.000000  23.254800   0.000000
                CHANNELS 3 Zrotation Xrotation Yrotation
                JOINT Head
                {
                    OFFSET   0.000010  14.370000   1.956600
                    CHANNELS 3 Zrotation Xrotation Yrotation
                    End Site
                    {
                        OFFSET   0.000000  19.566000   0.000000
                    }
                }
            }
            JOINT LeftCollar
            {
                OFFSET   3.911900  19.017000  -0.467062
                CHANNELS 3 Zrotation Xrotation Yrotation
                JOINT LeftShoulder
                {
                    OFFSET  10.383700   0.000000   0.000000
                    CHANNELS 3 Zrotation Xrotation Yrotation
                    JOINT LeftElbow
                    {
                        OFFSET  26.662100   0.001193   0.000835
                        CHANNELS 3 Zrotation Xrotation Yrotation
                        JOINT LeftWrist
                        {
                            OFFSET  28.869000  -0.000058  -0.000075
                            CHANNELS 3 Zrotation Xrotation Yrotation
                            JOINT LeftFinger0
                            {
                                OFFSET   2.044660  -2.323460   3.252850
                                CHANNELS 3 Zrotation Xrotation Yrotation
                                JOINT LeftFinger01
                                {
                                    OFFSET   3.088130   0.000000   0.000000
                                    CHANNELS 3 Zrotation Xrotation Yrotation
                                    JOINT LeftFinger02
                                    {
                                        OFFSET   2.639450   0.000000   0.000000
                                        CHANNELS 3 Zrotation Xrotation Yrotation
                                        End Site
                                        {
                                            OFFSET   2.582190   0.000000   0.000000
                                        }
                                    }
                                }
                            }
                            JOINT LeftFinger1
                            {
                                OFFSET   8.364480   0.000000   3.252850
                                CHANNELS 3 Zrotation Xrotation Yrotation
                                JOINT LeftFinger11
                                {
                                    OFFSET   4.646920   0.000000   0.000000
                                    CHANNELS 3 Zrotation Xrotation Yrotation
                                    JOINT LeftFinger12
                                    {
                                        OFFSET   2.323460   0.000000   0.000000
                                        CHANNELS 3 Zrotation Xrotation Yrotation
                                        End Site
                                        {
                                            OFFSET   2.273050   0.000000   0.000000
                                        }
                                    }
                                }
                            }
                            JOINT LeftFinger2
                            {
                                OFFSET   8.364490   0.000016   1.078090
                                CHANNELS 3 Zrotation Xrotation Yrotation
                                JOINT LeftFinger21
                                {
                                    OFFSET   5.111620   0.000000   0.000000
                                    CHANNELS 3 Zrotation Xrotation Yrotation
                                    JOINT LeftFinger22
                                    {
                                        OFFSET   2.788150   0.000012   0.000000
                                        CHANNELS 3 Zrotation Xrotation Yrotation
                                        End Site
                                        {
                                            OFFSET   2.727660   0.000000   0.000000
                                        }
                                    }
                                }
                            }
                            JOINT LeftFinger3
                            {
                                OFFSET   7.899780   0.000014  -1.078090
                                CHANNELS 3 Zrotation Xrotation Yrotation
                                JOINT LeftFinger31
                                {
                                    OFFSET   4.646930   0.000000   0.000000
                                    CHANNELS 3 Zrotation Xrotation Yrotation
                                    JOINT LeftFinger32
                                    {
                                        OFFSET   2.323470   0.000000   0.000000
                                        CHANNELS 3 Zrotation Xrotation Yrotation
                                        End Site
                                        {
                                            OFFSET   2.273050   0.000000   0.000000
                                        }
                                    }
                                }
                            }
                            JOINT LeftFinger4
                            {
                                OFFSET   7.435090   0.000000  -3.252850
                                CHANNELS 3 Zrotation Xrotation Yrotation
                                JOINT LeftFinger41
                                {
                                    OFFSET   3.717550   0.000000   0.000000
                                    CHANNELS 3 Zrotation Xrotation Yrotation
                                    JOINT LeftFinger42
                                    {
                                        OFFSET   1.858770   0.000000   0.000000
                                        CHANNELS 3 Zrotation Xrotation Yrotation
                                        End Site
                                        {
                                            OFFSET   1.818440   0.000000   0.000000
                                        }
                                    }
                                }
                            }
                        }
                    }
                }
            }
            JOINT RightCollar
            {
                OFFSET  -3.911900  19.017000  -0.467063
                CHANNELS 3 Zrotation Xrotation Yrotation
                JOINT RightShoulder
                {
                    OFFSET -10.383700   0.000023   0.000000
                    CHANNELS 3 Zrotation Xrotation Yrotation
                    JOINT RightElbow
                    {
                        OFFSET -26.662100   0.001246   0.001011
                        CHANNELS 3 Zrotation Xrotation Yrotation
                        JOINT RightWrist
                        {
                            OFFSET -28.869000  -0.000026  -0.000078
                            CHANNELS 3 Zrotation Xrotation Yrotation
                            JOINT RightFinger0
                            {
                                OFFSET  -2.044660  -2.323490   3.252850
                                CHANNELS 3 Zrotation Xrotation Yrotation
                                JOINT RightFinger01
                                {
                                    OFFSET  -3.088130   0.000000   0.000000
                                    CHANNELS 3 Zrotation Xrotation Yrotation
                                    JOINT RightFinger02
                                    {
                                        OFFSET  -2.639460   0.000000   0.000000
                                        CHANNELS 3 Zrotation Xrotation Yrotation
                                        End Site
                                        {
                                            OFFSET  -2.582190   0.000000   0.000000
                                        }
                                    }
                                }
                            }
                            JOINT RightFinger1
                            {
                                OFFSET  -8.364480   0.000000   3.252850
                                CHANNELS 3 Zrotation Xrotation Yrotation
                                JOINT RightFinger11
                                {
                                    OFFSET  -4.646920   0.000000   0.000000
                                    CHANNELS 3 Zrotation Xrotation Yrotation
                                    JOINT RightFinger12
                                    {
                                        OFFSET  -2.323470   0.000000   0.000000
                                        CHANNELS 3 Zrotation Xrotation Yrotation
                                        End Site
                                        {
                                            OFFSET  -2.273050   0.000000   0.000000
                                        }
                                    }
                                }
                            }
                            JOINT RightFinger2
                            {
                                OFFSET  -8.364480   0.000000   1.078090
                                CHANNELS 3 Zrotation Xrotation Yrotation
                                JOINT RightFinger21
                                {
                                    OFFSET  -5.111620   0.000000   0.000000
                                    CHANNELS 3 Zrotation Xrotation Yrotation
                                    JOINT RightFinger22
                                    {
                                        OFFSET  -2.788160   0.000000   0.000000
                                        CHANNELS 3 Zrotation Xrotation Yrotation
                                        End Site
                                        {
                                            OFFSET  -2.727660   0.000000   0.000000
                                        }
                                    }
                                }
                            }
                            JOINT RightFinger3
                            {
                                OFFSET  -7.899780   0.000000  -1.078090
                                CHANNELS 3 Zrotation Xrotation Yrotation
                                JOINT RightFinger31
                                {
                                    OFFSET  -4.646930   0.000000   0.000000
                                    CHANNELS 3 Zrotation Xrotation Yrotation
                                    JOINT RightFinger32
                                    {
                                        OFFSET  -2.323470   0.000000   0.000000
                                        CHANNELS 3 Zrotation Xrotation Yrotation
                                        End Site
                                        {
                                            OFFSET  -2.273050   0.000000   0.000000
                                        }
                                    }
                                }
                            }
                            JOINT RightFinger4
                            {
                                OFFSET  -7.435090   0.000000  -3.252850
                                CHANNELS 3 Zrotation Xrotation Yrotation
                                JOINT RightFinger41
                                {
                                    OFFSET  -3.717550   0.000000   0.000000
                                    CHANNELS 3 Zrotation Xrotation Yrotation
                                    JOINT RightFinger42
                                    {
                                        OFFSET  -1.858760   0.000000   0.000000
                                        CHANNELS 3 Zrotation Xrotation Yrotation
                                        End Site
                                        {
                                            OFFSET  -1.818440   0.000000   0.000000
                                        }
                                    }
                                }
                            }
                        }
                    }
                }
            }
        }
    }
    JOINT LeftHip
    {
        OFFSET   9.783010   0.000000   0.000000
        CHANNELS 3 Zrotation Xrotation Yrotation
        JOINT LeftKnee
        {
            OFFSET   0.000073 -41.789100   0.001749
            CHANNELS 3 Zrotation Xrotation Yrotation
            JOINT LeftAnkle
            {
                OFFSET   0.000111 -41.133200  -0.000179
                CHANNELS 3 Zrotation Xrotation Yrotation
                JOINT LeftToe
                {
                    OFFSET   0.000000  -6.358960  14.674500
                    CHANNELS 3 Zrotation Xrotation Yrotation
                    End Site
                    {
                        OFFSET   0.000000   0.000000   3.913200
                    }
                }
            }
        }
    }
    JOINT RightHip
    {
        OFFSET  -9.783010   0.000000   0.000000
        CHANNELS 3 Zrotation Xrotation Yrotation
        JOINT RightKnee
        {
            OFFSET   0.000424 -41.789200   0.005205
            CHANNELS 3 Zrotation Xrotation Yrotation
            JOINT RightAnkle
            {
                OFFSET   0.000000 -41.133200  -0.000155
                CHANNELS 3 Zrotation Xrotation Yrotation
                JOINT RightToe
                {
                    OFFSET   0.000000  -6.358960  14.674500
                    CHANNELS 3 Zrotation Xrotation Yrotation
                    End Site
                    {
                        OFFSET   0.000000   0.000000   3.913200
                    }
                }
            }
        }
    }
}
MOTION
Frames: 4
Frame Time:   0.016667
  0.106946  89.397300   0.086577  -5.388490 -19.576700  -2.124780  -0.847109  12.385800   6.074030  -3.182850  24.601900  12.801400   0.868196   1.418550  -0.020956   1.430120   2.874890  -8.433520  -5.697230  -7.560270  -3.179940 -64.884400  25.012500  -5.652460  -3.054410  -9.044830 -18.306000  15.633700 -10.805200   7.046530  48.273600  44.998800 -80.248500 -31.036100  -0.002871   0.002816 -10.518000  -0.002592  -0.001495 -37.405700   6.146550  -7.968700 -30.955600   0.013140  -0.002137 -21.668900   0.007676   0.000193 -31.043700  -1.653290   2.745610 -46.625500   0.009972   0.000840 -31.052600   0.001850   0.012290 -31.086100  -1.655260   2.744450 -46.689100   0.009730  -0.000234 -31.094900   0.003927   0.010754 -40.200400  -2.069090   2.447620 -60.367500  -0.008090   0.003213 -40.204700  -0.000587  -0.003728   7.371410  -6.239970   9.548550  42.208000  -1.565120  60.436100 -31.948600 -31.180800  49.163900 -19.616400 -11.890400   8.183210 -44.297300  42.484800  53.788900  35.129400   0.002925  -0.003347  13.136800   0.004109  -0.002163  83.355400   4.962020   0.574376  68.220600  -0.000947   0.000684  51.165400   0.000545   0.005478  87.842700  -0.000966  -0.002765  87.842700  -0.001693   0.000891  65.882100  -0.001395   0.010158  88.468300  -4.996490  -0.133437  88.474000  -0.001421  -0.001790  66.355500  -0.001073  -0.002761  84.398500  -9.953510  -0.973473 109.996000  -0.006856  -0.006923  79.999900  -0.003952   0.002165   3.212540  22.867400   4.341420   1.673480   0.041512   1.688660  -1.005730  -4.279590   3.043870  -0.000000   0.000000   0.000000   6.841830  18.807000  -7.223760  -3.019990   8.359120  -8.055030   1.223890  -7.838890   2.478260  -0.000000   0.000000   0.000000
  0.127141  89.399200   0.083655  -5.361430 -19.288800  -2.112580  -0.869339  12.285000   6.032750  -3.183100  24.401700  12.708100   0.819775   1.145350  -0.016743   1.330910   2.321550  -8.322590  -5.697820  -7.611210  -2.981440 -64.989600  24.498000  -5.589420  -2.786770  -8.225150 -18.922100  16.000100 -11.006300   7.062460  47.838600  44.508400 -79.319200 -31.074000  -0.002884   0.002783 -10.537000  -0.002587  -0.001488 -37.459900   6.036130  -7.828230 -30.987800   0.013151  -0.002080 -21.691400   0.007621   0.000250 -31.096600  -1.742600   2.891360 -46.713800   0.009985   0.000897 -31.111400   0.001797   0.012288 -31.127900  -1.743640   2.890700 -46.760600   0.009752  -0.000159 -31.142500   0.003878   0.010743 -40.233100  -2.178770   2.579140 -60.426200  -0.008087   0.003212 -40.243800  -0.000562  -0.003691   7.568870  -6.355120   9.752880  42.008400  -0.864131  58.991700 -32.659300 -31.721000  49.684100 -18.185600 -11.298500   9.232300 -44.072400  42.015700  53.833900  34.878900   0.002422  -0.002770  12.889100   0.004336  -0.000548  83.281400   4.996520   0.587380  68.160500  -0.001569   0.001713  51.120300   0.000822   0.005202  87.776500  -0.003473  -0.002899  87.776500  -0.002898   0.004790  65.832500   0.001630   0.008785  88.588400  -5.002440  -0.124896  88.593700  -0.002029   0.003341  66.445300   0.001803  -0.002382  84.344800  -9.959080  -0.983704 109.996000  -0.006886  -0.006944  80.001200  -0.004002   0.002163   3.098820  22.571700   4.446330   1.787230   0.068912   1.648700  -0.983788  -4.305470   3.041690  -0.000000   0.000000   0.000000   6.766970  18.640500  -7.230520  -2.984440   8.182270  -8.055800   1.202690  -7.739560   2.564130  -0.000000   0.000000   0.000000
  0.160918  89.399500   0.083238  -5.328160 -18.969600  -2.065950  -0.862207  12.171700   5.920070  -3.147540  24.179700  12.465100   0.699263   0.858466  -0.010473   1.149500   1.740120  -8.072060  -5.702170  -7.631090  -2.678460 -65.239600  23.637500  -5.379150  -2.463430  -7.384580 -19.634400  16.476300 -11.634600   7.156240  47.299600  44.106800 -78.561100 -31.176100  -0.002897   0.002755 -10.588100  -0.002582  -0.001483 -37.616600   5.873520  -7.563200 -31.097500   0.013162  -0.002022 -21.768200   0.007565   0.000307 -31.237900  -1.901310   3.131820 -46.939400   0.009998   0.000953 -31.261700   0.001745   0.012285 -31.252200  -1.902090   3.131280 -46.960900   0.009775  -0.000091 -31.275900   0.003827   0.010737 -40.366200  -2.374580   2.791340 -60.640700  -0.008083   0.003211 -40.386700  -0.000537  -0.003653   7.818400  -6.375710   9.971790  43.283100  -0.252434  57.435300 -33.982500 -31.935000  50.799500 -16.797700 -10.878300  10.344500 -44.013300  41.769200  54.006600  34.792600   0.002206  -0.002585  12.801000   0.004508   0.000201  83.134400   5.031010   0.611187  68.039200  -0.001940   0.007205  51.029300   0.002767   0.005129  87.528900  -0.011699  -0.002963  87.528800  -0.003584   0.011396  65.646700   0.006573   0.007338  88.605500  -5.008460  -0.123676  88.610800  -0.002456   0.009482  66.458100   0.005698  -0.001969  84.073500  -9.964530  -1.032310 109.996000  -0.006906  -0.006957  80.010700  -0.004031   0.002157   3.035550  22.261400   4.541430   1.850510   0.085775   1.582080  -0.970237  -4.340880   3.025860   0.000000   0.000000   0.000000   6.717760  18.483400  -7.225820  -2.906250   7.936480  -8.081680   1.175610  -7.633000   2.578300  -0.000000   0.000000   0.000000
  0.189844  89.393500   0.131257  -5.301910 -18.669400  -1.934400  -0.800599  12.041300   5.725300  -2.966950  23.933700  12.036700   0.505293   0.635132  -0.006571   0.832303   1.287860  -7.705720  -5.757080  -7.615240  -2.498500 -65.630400  22.869100  -4.937150  -2.089040  -6.561580 -20.306800  17.142800 -12.846700   7.421120  46.822300  43.913700 -78.228100 -31.350400  -0.002896   0.002733 -10.675300  -0.002582  -0.001493 -37.920900   5.698120  -7.263730 -31.324400   0.013173  -0.001961 -21.927000   0.007505   0.000363 -31.482800  -2.089270   3.405000 -47.321200   0.010015   0.001010 -31.516000   0.001694   0.012280 -31.486600  -2.089440   3.404830 -47.326900   0.009798  -0.000048 -31.519700   0.003763   0.010752 -40.660100  -2.606530   3.028800 -61.097300  -0.008077   0.003212 -40.690800  -0.000511  -0.003615   7.932420  -6.318420   9.989690  45.846400   0.112098  55.843800 -34.992600 -30.527600  53.142600 -15.917600 -10.953200  11.311500 -44.214500  41.925700  54.602600  34.809600   0.001943  -0.002237  12.809300   0.004634   0.000682  82.651100   4.959290   0.667552  67.642000   0.000518   0.020882  50.731400   0.011441   0.009175  86.859400  -0.033575  -0.001662  86.859600   0.000002   0.023229  65.144700   0.015889   0.005875  88.235200  -5.017740  -0.151731  88.241900   0.001173   0.019236  66.181400   0.013591  -0.001502  83.324800  -9.963070  -1.153620 109.996000  -0.006908  -0.006964  80.170500   0.009332  -0.004755   3.098220  22.035700   4.614080   1.815530   0.043707   1.515340  -0.976569  -4.379100   2.926320  -0.000000   0.000000   0.000000   6.715310  18.363800  -7.066190  -2.806800   7.667900  -8.285640   1.147520  -7.527760   2.537650  -0.000000   0.000000   0.000000
